<?xml version="1.0" standalone="no"?>
<!DOCTYPE svg PUBLIC "-//W3C//DTD SVG 20010904//EN"
 "http://www.w3.org/TR/2001/REC-SVG-20010904/DTD/svg10.dtd">
<svg version="1.0" xmlns="http://www.w3.org/2000/svg"
 width="1266.000000pt" height="630.000000pt" viewBox="0 0 1266.000000 630.000000"
 preserveAspectRatio="xMidYMid meet">

<g transform="translate(0.000000,630.000000) scale(0.100000,-0.100000)"
fill="#000000" stroke="none">
<path d="M5290 6172 c-58 -8 -106 -16 -107 -17 -2 -1 15 -127 36 -281 22 -153
49 -351 61 -439 26 -203 41 -255 86 -305 51 -57 112 -71 211 -50 80 17 79 17
52 110 -19 68 -26 80 -41 77 -10 -3 -27 2 -38 11 -20 17 -26 55 -120 742 -12
85 -24 158 -28 161 -4 3 -54 -1 -112 -9z"/>
<path d="M4784 6111 c-81 -37 -94 -132 -28 -191 40 -34 91 -40 149 -16 38 16
75 68 75 104 0 41 -30 90 -65 106 -43 21 -81 20 -131 -3z"/>
<path d="M4427 5938 c-69 -24 -87 -33 -83 -46 3 -10 19 -100 36 -202 17 -102
47 -270 66 -374 19 -104 33 -193 32 -198 -2 -5 -28 35 -57 89 -100 183 -353
603 -364 603 -6 0 -48 -12 -94 -27 -64 -21 -83 -31 -83 -45 0 -42 51 -551 65
-648 8 -58 15 -116 15 -130 0 -14 -78 132 -180 338 -98 199 -182 362 -187 362
-13 0 -197 -62 -206 -69 -5 -6 469 -890 488 -909 4 -5 228 64 256 79 14 7 14
22 -3 166 -24 209 -58 491 -65 528 -3 22 7 9 38 -45 100 -180 312 -541 320
-546 5 -2 67 14 139 36 119 38 130 43 130 65 0 24 -125 925 -136 978 -7 34
-16 33 -127 -5z"/>
<path d="M8331 5944 c-26 -19 -51 -71 -51 -109 0 -41 26 -81 65 -99 40 -19 40
-36 4 -88 -19 -25 -109 -78 -136 -78 -14 0 -16 -16 -6 -73 6 -37 7 -39 36 -33
57 11 142 57 184 98 60 59 96 145 101 240 4 75 4 77 -30 114 -30 32 -42 38
-89 41 -40 3 -60 0 -78 -13z"/>
<path d="M5870 5917 c-90 -25 -159 -84 -185 -156 -22 -62 -19 -110 10 -168 36
-72 105 -116 248 -157 31 -9 71 -29 88 -44 26 -23 29 -32 23 -56 -16 -64 -134
-73 -243 -18 l-58 30 -46 -71 c-53 -82 -53 -81 39 -122 278 -126 580 38 513
278 -22 82 -94 133 -251 181 -93 28 -131 58 -121 97 15 55 114 64 207 20 26
-13 48 -22 50 -20 34 43 85 132 80 140 -4 7 -36 25 -73 42 -54 25 -82 31 -151
34 -49 1 -104 -3 -130 -10z"/>
<path d="M6609 5911 c-78 -25 -143 -75 -189 -143 -57 -85 -65 -117 -65 -253 0
-114 2 -123 31 -185 126 -261 481 -292 643 -56 91 132 98 339 16 482 -80 139
-276 209 -436 155z m154 -172 c20 -5 48 -22 61 -36 67 -72 59 -284 -13 -365
-38 -43 -110 -50 -161 -16 -60 41 -85 157 -59 277 13 64 45 111 89 133 41 21
35 21 83 7z"/>
<path d="M7310 5863 c0 -4 -29 -176 -66 -381 -36 -206 -63 -376 -61 -378 8 -9
212 -42 218 -35 3 3 25 120 49 259 l44 253 41 25 c54 31 131 33 163 4 42 -40
41 -56 -32 -462 -13 -71 -22 -128 -21 -128 0 0 50 -9 110 -20 60 -11 110 -18
112 -17 2 2 23 119 48 259 62 355 60 424 -20 504 -76 75 -206 86 -327 26 -36
-18 -67 -32 -69 -32 -2 0 -4 21 -4 47 l0 48 -60 12 c-115 23 -125 24 -125 16z"/>
<path d="M4885 5775 c-72 -15 -99 -25 -98 -36 3 -20 146 -744 148 -746 1 -2
52 7 114 19 103 21 112 24 107 43 -3 11 -38 183 -78 383 -40 199 -77 361 -83
361 -5 -1 -55 -11 -110 -24z"/>
<path d="M8739 5496 c-126 -34 -194 -156 -154 -278 15 -44 34 -69 115 -148
109 -106 122 -125 109 -158 -28 -74 -169 -31 -247 77 l-29 39 -71 -46 c-39
-26 -72 -49 -72 -53 0 -17 70 -94 121 -133 105 -79 251 -115 353 -86 123 34
198 183 151 298 -9 22 -58 78 -120 138 -110 106 -124 133 -89 168 35 36 133 1
186 -65 17 -21 35 -39 40 -39 5 0 38 20 73 43 l65 44 -42 53 c-56 71 -141 125
-228 144 -81 19 -99 19 -161 2z"/>
<path d="M9726 5411 c-4 -5 -26 -65 -50 -133 -24 -68 -101 -280 -170 -471 -69
-191 -126 -353 -126 -360 0 -17 239 -152 249 -141 4 5 88 99 187 209 99 110
201 226 228 258 27 32 50 56 52 54 2 -2 -9 -37 -25 -78 -16 -41 -66 -186 -111
-324 -46 -137 -85 -255 -87 -262 -5 -12 231 -157 246 -151 5 2 62 66 128 143
66 77 215 252 332 389 117 137 209 252 204 256 -4 5 -46 31 -92 58 l-84 49
-155 -190 c-85 -105 -197 -246 -249 -313 -51 -68 -98 -126 -103 -129 -6 -3 9
45 31 107 33 89 219 662 219 674 0 6 -162 95 -168 92 -12 -5 -351 -366 -421
-448 -98 -115 -132 -152 -136 -148 -2 2 17 50 42 108 73 169 264 642 261 644
-2 2 -32 20 -68 41 -36 21 -79 46 -97 57 -18 11 -34 15 -37 9z"/>
<path d="M2820 5047 c-67 -32 -122 -92 -155 -171 l-29 -69 -33 39 -33 39 -77
-42 c-43 -23 -78 -46 -78 -50 0 -18 370 -672 380 -672 19 1 188 104 186 114 0
6 -58 110 -127 233 l-125 223 25 54 c27 60 72 95 120 95 44 0 79 -46 201 -265
61 -109 115 -204 120 -212 9 -11 26 -5 99 36 49 27 92 53 97 58 7 7 -107 221
-223 417 -51 86 -110 151 -160 177 -51 26 -130 24 -188 -4z"/>
<path d="M2078 4567 c-100 -38 -166 -96 -216 -190 -24 -47 -27 -62 -27 -158 0
-101 1 -108 37 -180 88 -179 261 -281 422 -249 88 17 163 57 227 120 53 52
119 150 119 177 0 12 -108 73 -129 73 -6 0 -17 -13 -26 -30 -43 -84 -140 -150
-220 -150 -43 0 -120 37 -120 57 0 7 81 72 180 144 99 72 182 133 184 135 9 9
-94 147 -133 178 -93 76 -212 105 -298 73z m160 -201 c20 -19 35 -36 32 -39
-30 -24 -205 -150 -215 -153 -39 -15 -46 125 -9 167 32 36 77 59 117 59 29 0
46 -8 75 -34z"/>
<path d="M10761 4359 c-121 -20 -248 -124 -313 -256 -31 -63 -33 -74 -33 -168
0 -91 3 -105 29 -158 37 -72 118 -150 193 -185 79 -36 199 -37 288 -3 83 33
193 142 237 237 30 63 33 78 33 164 0 82 -4 103 -27 152 -52 112 -159 195
-282 217 -33 6 -62 10 -65 10 -3 -1 -30 -5 -60 -10z m155 -205 c107 -51 98
-183 -21 -306 -98 -103 -190 -114 -254 -32 -50 63 -6 191 96 284 73 67 121 81
179 54z"/>
<path d="M6170 4219 c-144 -12 -395 -55 -496 -85 -586 -169 -1044 -501 -1310
-948 -71 -119 -141 -288 -170 -413 -27 -112 -27 -113 -69 -137 -93 -55 -139
-166 -115 -279 8 -38 31 -85 79 -159 65 -99 68 -108 75 -180 37 -410 185 -881
397 -1262 34 -61 68 -119 77 -128 19 -22 75 -23 96 -2 26 25 19 63 -28 143
-76 132 -154 294 -210 438 -52 132 -132 401 -156 528 -6 33 -14 68 -17 79 -11
40 21 -1 146 -187 172 -254 225 -304 343 -325 99 -19 197 10 267 78 77 75 109
180 111 365 1 44 4 97 8 117 l7 37 105 -120 c155 -178 211 -213 335 -213 128
0 226 67 282 192 14 31 27 59 29 61 2 2 31 -22 65 -52 157 -142 407 -218 614
-187 356 53 638 320 732 690 26 105 26 105 107 197 l81 92 7 -42 c3 -23 7 -76
8 -117 2 -179 33 -280 106 -355 93 -95 235 -116 360 -53 53 26 154 129 173
177 17 40 3 77 -34 91 -38 14 -66 -2 -102 -57 -47 -73 -101 -106 -177 -111
-71 -4 -113 16 -146 70 -33 53 -38 90 -50 343 -13 271 -19 290 -80 290 -31 0
-47 -16 -209 -199 -100 -112 -191 -206 -211 -217 -42 -22 -121 -24 -159 -5
-43 23 -89 81 -97 123 -9 49 0 223 37 678 25 316 34 387 50 422 39 81 120 102
171 44 36 -40 36 -44 -2 -489 -16 -194 -27 -359 -23 -367 7 -21 36 -35 69 -35
19 0 38 12 64 43 252 285 258 290 339 309 59 13 116 -4 165 -48 56 -52 68
-100 78 -304 10 -219 11 -225 42 -245 52 -34 61 -24 293 323 143 214 228 331
248 343 45 28 81 24 117 -11 28 -29 30 -35 26 -90 -4 -58 -9 -67 -172 -311
-93 -138 -171 -260 -173 -270 -9 -34 6 -66 37 -79 41 -17 67 2 116 80 24 39
41 57 47 51 17 -17 1 -364 -21 -461 -144 -615 -675 -1110 -1412 -1315 -213
-59 -384 -80 -660 -80 -303 0 -495 27 -745 106 -70 21 -142 39 -161 39 -69 0
-148 -51 -178 -115 -29 -60 -38 -193 -24 -357 11 -138 10 -149 -7 -168 -23
-25 -69 -26 -103 -1 -15 10 -72 70 -127 132 -136 153 -132 149 -160 149 -32 0
-65 -33 -65 -64 0 -48 240 -314 316 -351 88 -43 199 -11 259 74 29 41 30 46
26 130 -11 200 -6 387 9 406 28 34 53 35 150 4 106 -33 323 -81 455 -101 142
-21 601 -18 740 5 337 56 558 128 834 273 371 195 673 493 845 833 71 142 97
210 131 355 48 203 55 406 20 605 l-14 83 60 90 c96 143 113 182 113 263 0 59
-5 79 -29 125 -43 79 -97 113 -183 118 -60 3 -74 0 -126 -27 -32 -17 -59 -31
-61 -31 -1 0 -32 40 -69 89 -340 459 -914 773 -1567 856 -151 19 -417 26 -549
14z m520 -143 c583 -73 1105 -341 1434 -736 71 -85 149 -197 144 -208 -11 -26
-232 -352 -238 -352 -4 0 -10 42 -13 93 -7 119 -34 191 -98 261 -69 75 -129
101 -239 101 -77 -1 -91 -4 -148 -34 -41 -22 -88 -61 -133 -109 l-69 -74 0 43
c0 24 7 130 15 234 24 312 20 360 -37 430 -44 52 -101 78 -173 78 -69 0 -112
-18 -168 -72 -58 -54 -77 -101 -89 -210 -19 -193 -17 -184 -41 -177 -150 41
-326 46 -452 12 -166 -44 -363 -178 -467 -318 l-51 -70 -18 34 c-10 19 -38 53
-62 75 -125 115 -309 78 -372 -74 -19 -45 -19 -167 0 -388 8 -93 15 -190 15
-214 l0 -44 -61 67 c-77 83 -129 120 -204 141 -115 34 -239 1 -319 -85 -74
-79 -106 -166 -106 -290 0 -32 -4 -61 -8 -64 -5 -3 -74 92 -153 211 -147 222
-196 281 -249 303 -37 15 -36 20 16 179 122 368 365 670 729 906 270 175 622
302 973 350 134 18 499 19 642 1z m82 -855 c37 -12 70 -26 73 -31 5 -9 -14
-300 -20 -308 -2 -2 -25 10 -51 27 -67 41 -130 55 -221 49 -68 -5 -79 -8 -100
-32 -26 -31 -29 -54 -9 -82 13 -16 27 -19 108 -19 103 0 136 -12 196 -69 53
-49 62 -75 55 -149 -4 -47 0 -88 12 -143 l19 -77 -32 -61 c-46 -90 -85 -131
-154 -165 -109 -55 -214 -36 -293 51 -81 91 -103 240 -56 384 26 78 24 95 -12
119 -39 25 -76 10 -98 -40 -67 -151 -64 -327 7 -467 74 -146 234 -234 381
-210 35 6 88 22 118 36 69 31 168 124 207 194 17 28 31 52 33 52 2 0 19 -9 38
-20 48 -29 132 -42 192 -31 28 5 52 8 54 6 8 -8 -71 -160 -114 -221 -100 -139
-266 -251 -430 -290 -158 -37 -362 -1 -495 88 -127 84 -246 243 -290 385 -125
403 79 856 450 1003 137 55 301 62 432 21z m-1076 -240 c61 -60 77 -181 44
-341 -39 -187 -17 -401 59 -573 23 -54 29 -183 11 -246 -20 -70 -90 -121 -165
-121 -73 0 -114 29 -231 163 -230 262 -245 277 -275 277 -54 0 -66 -31 -73
-202 -14 -297 -22 -371 -44 -415 -33 -64 -74 -88 -153 -88 -112 0 -108 -5
-438 489 l-291 436 0 56 c0 48 4 59 29 85 34 34 72 38 116 11 20 -12 106 -132
248 -345 232 -347 240 -357 292 -323 31 21 32 24 43 247 11 210 22 251 85 306
71 62 160 65 242 10 32 -22 145 -145 233 -253 24 -30 55 -57 68 -60 34 -9 72
3 84 25 7 14 1 124 -20 373 -37 440 -37 448 -5 487 40 46 96 47 141 2z"/>
<path d="M1497 4132 c-37 -37 -67 -71 -67 -75 0 -13 209 -336 268 -415 30 -40
52 -75 49 -78 -3 -3 -45 21 -94 54 -48 32 -162 105 -251 162 l-164 103 -70
-70 -70 -70 103 -174 c56 -96 124 -207 151 -247 27 -39 52 -80 55 -89 4 -9
-31 12 -78 48 -46 35 -158 115 -249 177 l-165 112 -79 -80 c-44 -43 -78 -81
-76 -83 12 -12 672 -417 678 -417 9 0 182 173 182 182 0 11 -166 276 -235 376
-31 46 -55 85 -53 87 2 2 26 -14 54 -35 29 -22 131 -91 229 -155 l177 -116 96
94 96 95 -201 338 c-111 186 -205 340 -210 341 -5 2 -39 -27 -76 -65z"/>
<path d="M11227 3609 l-216 -332 86 -93 c47 -52 90 -94 95 -94 13 0 283 160
382 226 44 30 82 52 84 49 2 -2 -23 -39 -55 -82 -80 -105 -253 -359 -253 -370
1 -4 41 -50 90 -102 l88 -94 346 194 c190 106 346 196 346 199 0 3 -31 38 -68
79 l-68 75 -140 -84 c-76 -45 -189 -116 -250 -156 -60 -41 -114 -74 -118 -74
-4 0 16 33 44 73 29 39 106 152 171 251 l119 179 -67 71 c-37 39 -71 70 -75
69 -17 -6 -408 -229 -456 -261 -29 -19 -55 -33 -57 -30 -3 3 25 43 63 89 70
86 281 379 282 390 0 9 -140 159 -149 159 -4 0 -105 -149 -224 -331z"/>
<path d="M392 3242 c-202 -72 -345 -305 -312 -507 35 -214 286 -440 527 -475
167 -23 327 48 423 190 141 207 115 417 -74 606 -138 138 -257 195 -416 201
-74 3 -106 -1 -148 -15z m256 -247 c92 -46 202 -150 234 -221 32 -72 30 -140
-7 -200 -87 -139 -283 -121 -464 43 -82 73 -112 127 -118 206 -4 55 -1 68 26
113 23 40 42 58 83 79 73 36 142 31 246 -20z"/>
<path d="M12200 2891 c-147 -45 -190 -157 -141 -364 25 -106 26 -126 5 -155
-24 -35 -66 -29 -104 15 -43 48 -58 86 -66 167 l-7 66 -83 0 -84 0 0 -52 c0
-121 54 -242 146 -328 122 -114 255 -120 357 -15 63 65 70 133 31 297 -29 120
-26 154 12 168 53 21 108 -43 128 -147 l12 -68 83 -3 84 -3 -7 66 c-9 86 -29
145 -73 211 -73 111 -200 173 -293 145z"/>
</g>
</svg>
